<svg width="18" height="18" viewBox="0 0 18 18" fill="none" xmlns="http://www.w3.org/2000/svg">
<path d="M18 9C18 13.9706 13.9706 18 9 18C4.02944 18 0 13.9706 0 9C0 4.02944 4.02944 0 9 0C13.9706 0 18 4.02944 18 9Z" fill="white"/>
<path d="M9.25456 7.46736C10.8779 6.79826 12.696 7.59531 13.3417 9.29141C14.0055 11.0359 13.1812 13.064 11.4785 13.7763C10.9428 13.9935 10.3563 14.0699 9.77944 13.9976C10.6489 14.2899 11.6021 14.2521 12.4435 13.8921C14.5466 13.0121 15.5422 10.5138 14.6999 8.38025C13.8865 6.31761 11.6463 5.35804 9.66761 6.17584C7.94328 6.88817 6.85024 8.82805 7.22721 10.557C7.25246 10.6694 7.21458 10.5276 7.22721 10.576C7.14604 9.13061 7.9054 8.02236 9.25456 7.46736Z" fill="black"/>
<path d="M8.37237 11.1898C6.81233 11.8308 5.07896 10.9145 4.53121 9.14406C3.98347 7.37359 4.80682 5.46816 6.36512 4.86616C6.85559 4.68504 7.38339 4.63672 7.89742 4.72587C7.12478 4.42471 6.27108 4.42471 5.49843 4.72587C3.56572 5.46993 2.52916 7.84062 3.20865 10.0249C3.88813 12.2091 6.03925 13.3545 7.97543 12.55C9.636 11.861 10.5755 9.97336 10.3519 8.09101C10.338 7.97558 10.3224 7.86904 10.3137 7.82109C10.4039 9.26304 9.6464 10.6641 8.37237 11.1898Z" fill="black"/>
<path d="M7.5813 10.4862C7.51239 10.5142 7.43886 10.4991 7.37751 10.4444C7.31616 10.3896 7.27223 10.2998 7.25577 10.1956L7.16136 9.63387C7.12448 9.41143 7.21042 9.18471 7.35668 9.11855L9.49055 8.20514C9.55919 8.17845 9.63209 8.19383 9.69316 8.2479C9.75423 8.30197 9.79846 8.39027 9.81608 8.49333L9.91211 9.04773C9.9521 9.26854 9.86768 9.49699 9.72168 9.56305L7.5813 10.4862Z" fill="black"/>
</svg>
