<svg width="22" height="15" viewBox="0 0 22 15" fill="none" xmlns="http://www.w3.org/2000/svg">
<path d="M21.8737 8.71188L19.1075 13.4539C18.6695 14.2049 17.8655 14.6667 16.9961 14.6667H1.71971C1.01223 14.6667 0.571427 13.8992 0.927896 13.2881L3.69409 8.54608C4.13216 7.79511 4.93615 7.33333 5.80556 7.33333H21.082C21.7894 7.33333 22.2302 8.10077 21.8737 8.71188ZM5.80556 6.11111H18.3333V4.27778C18.3333 3.26524 17.5125 2.44444 16.5 2.44444H10.3889L7.94445 0H1.83333C0.820799 0 0 0.820799 0 1.83333V12.4531L2.63836 7.93024C3.2929 6.80816 4.50652 6.11111 5.80556 6.11111Z" fill="white"/>
</svg>
