
<svg width="22" height="16" viewBox="0 0 22 16" fill="none" xmlns="http://www.w3.org/2000/svg">
<path d="M19.3333 2.66667H11.3333L8.66667 0H2C0.895417 0 0 0.895417 0 2V14C0 15.1046 0.895417 16 2 16H19.3333C20.4379 16 21.3333 15.1046 21.3333 14V4.66667C21.3333 3.56208 20.4379 2.66667 19.3333 2.66667ZM15.3333 9.66667C15.3333 10.035 15.035 10.3333 14.6667 10.3333H11.6667V13.3333C11.6667 13.7017 11.3683 14 11 14H10.3333C9.965 14 9.66667 13.7017 9.66667 13.3333V10.3333H6.66667C6.29833 10.3333 6 10.035 6 9.66667V9C6 8.63167 6.29833 8.33333 6.66667 8.33333H9.66667V5.33333C9.66667 4.965 9.965 4.66667 10.3333 4.66667H11C11.3683 4.66667 11.6667 4.965 11.6667 5.33333V8.33333H14.6667C15.035 8.33333 15.3333 8.63167 15.3333 9V9.66667Z" fill="black"/>
</svg>
