<svg width="18" height="21" viewBox="0 0 18 21" fill="none" xmlns="http://www.w3.org/2000/svg">
<path d="M3.85714 15.8484V3.88125H0.964286C0.431725 3.88125 0 4.31568 0 4.85156V19.7297C0 20.2656 0.431725 20.7 0.964286 20.7H11.8929C12.4254 20.7 12.8571 20.2656 12.8571 19.7297V18.1125H6.10714C4.86505 18.1112 3.85847 17.0983 3.85714 15.8484ZM12.8571 4.20469V2.9216e-06H6.10714C5.57458 2.9216e-06 5.14286 0.434427 5.14286 0.970315V15.8484C5.14286 16.3843 5.57458 16.8188 6.10714 16.8188H17.0357C17.5683 16.8188 18 16.3843 18 15.8484V5.175H13.8214C13.2895 5.17345 12.8587 4.73993 12.8571 4.20469ZM15.4286 9.37969V11.3203C15.4286 11.4989 15.2847 11.6438 15.1071 11.6438H12.8571V13.9078C12.8571 14.0864 12.7132 14.2313 12.5357 14.2313H10.6071C10.4296 14.2313 10.2857 14.0864 10.2857 13.9078V11.6438H8.03571C7.85819 11.6438 7.71429 11.4989 7.71429 11.3203V9.37969C7.71429 9.20106 7.85819 9.05625 8.03571 9.05625H10.2857V6.79219C10.2857 6.61356 10.4296 6.46875 10.6071 6.46875H12.5357C12.7132 6.46875 12.8571 6.61356 12.8571 6.79219V9.05625H15.1071C15.2847 9.05625 15.4286 9.20106 15.4286 9.37969ZM17.7188 2.95137L15.067 0.283011C14.8856 0.101186 14.6399 -0.000628733 14.3839 2.9216e-06L14.1429 0V3.88125H18V3.63625C18 3.3795 17.8989 3.13323 17.7188 2.95137Z" fill="white"/>
</svg>
